<?xml version="1.0" standalone="no"?>
<!DOCTYPE svg PUBLIC "-//W3C//DTD SVG 20010904//EN"
 "http://www.w3.org/TR/2001/REC-SVG-20010904/DTD/svg10.dtd">
<svg version="1.0" xmlns="http://www.w3.org/2000/svg"
 width="512.000000pt" height="511.000000pt" viewBox="0 0 512.000000 511.000000"
 preserveAspectRatio="xMidYMid meet">

<g transform="translate(0.000000,511.000000) scale(0.100000,-0.100000)"
fill="#000000" stroke="none">
<path d="M1190 5044 c-113 -30 -351 -93 -530 -140 -197 -53 -348 -98 -385
-117 -176 -88 -286 -297 -271 -515 9 -141 199 -682 366 -1042 342 -736 850
-1403 1515 -1986 388 -340 814 -625 1270 -849 255 -126 486 -218 796 -320
l234 -76 155 3 155 3 79 38 c99 47 191 136 234 229 18 37 88 280 172 599 116
435 142 542 136 573 -15 77 -31 86 -721 393 -352 156 -661 291 -687 299 -82
28 -96 19 -348 -232 l-225 -223 -96 72 c-226 171 -376 302 -642 566 -274 271
-471 492 -631 709 l-69 94 221 221 c122 122 226 235 232 250 5 16 10 43 10 60
0 40 -592 1376 -623 1405 -28 27 -70 42 -110 41 -18 0 -124 -25 -237 -55z
m389 -789 c125 -280 233 -525 240 -543 l14 -34 -226 -226 c-141 -142 -232
-240 -241 -263 -24 -57 -6 -107 86 -238 350 -500 992 -1144 1499 -1504 163
-115 192 -125 266 -90 19 9 135 116 258 239 l223 222 538 -240 c297 -132 542
-243 547 -247 6 -6 -180 -730 -229 -888 -33 -107 -120 -159 -251 -150 -151 10
-711 216 -1054 388 -966 482 -1852 1325 -2408 2289 -106 183 -249 480 -329
680 -89 224 -202 568 -209 635 -11 108 49 217 135 246 80 28 878 237 896 236
14 -2 68 -114 245 -512z"/>
<path d="M2479 5077 c-93 -62 -88 -193 10 -251 26 -15 64 -20 185 -27 335 -17
618 -92 912 -243 442 -225 783 -571 1004 -1018 140 -282 230 -654 230 -947 0
-43 6 -78 18 -101 53 -107 209 -107 265 0 16 31 18 52 13 172 -22 532 -207
1032 -545 1468 -97 126 -330 354 -461 452 -443 331 -979 518 -1483 518 -102 0
-118 -2 -148 -23z"/>
<path d="M2479 4477 c-93 -62 -88 -193 10 -251 23 -13 64 -20 159 -27 240 -15
376 -49 595 -146 393 -174 717 -523 865 -933 58 -160 78 -260 96 -467 9 -109
18 -159 30 -178 61 -93 207 -84 259 15 16 30 18 51 13 150 -29 649 -371 1226
-934 1579 -269 168 -647 280 -948 281 -99 0 -115 -2 -145 -23z"/>
<path d="M2480 3878 c-94 -63 -90 -194 8 -251 21 -12 67 -21 144 -27 261 -22
468 -114 656 -295 189 -181 299 -418 320 -695 6 -74 14 -117 26 -135 43 -65
142 -86 207 -42 67 44 80 105 59 277 -58 472 -364 889 -789 1075 -170 75 -295
104 -471 112 -119 5 -127 4 -160 -19z"/>
</g>
</svg>
